HIERARCHY
ROOT Root
{
  OFFSET 0.0 0.0 0.0
  CHANNELS 6 Xposition Yposition Zposition Zrotation Yrotation Xrotation
  JOINT Hips
  {
    OFFSET 0.0 100.0 0.0
    CHANNELS 6 Xposition Yposition Zposition Zrotation Yrotation Xrotation
    JOINT Spine1
    {
      OFFSET 5.003913 -0.037094 -0.013727
      CHANNELS 3 Zrotation Yrotation Xrotation
      JOINT Spine2
      {
        OFFSET 7.125363 -1e-06 0.0
        CHANNELS 3 Zrotation Yrotation Xrotation
        JOINT Chest
        {
          OFFSET 7.594027 1e-06 0.0
          CHANNELS 3 Zrotation Yrotation Xrotation
          JOINT Neck1
          {
            OFFSET 26.313086 -0.460272 -0.181672
            CHANNELS 3 Zrotation Yrotation Xrotation
            JOINT Neck2
            {
              OFFSET 8.045911 0.0 0.0
              CHANNELS 3 Zrotation Yrotation Xrotation
              JOINT Head
              {
                OFFSET 6.432774 0.0 0.0
                CHANNELS 3 Zrotation Yrotation Xrotation
                JOINT HeadEnd
                {
                  OFFSET 16.169773 0.06451 0.00362
                  CHANNELS 3 Zrotation Yrotation Xrotation
                }
                JOINT Jaw
                {
                  OFFSET 0.108741 3.12938 0.002639
                  CHANNELS 3 Zrotation Yrotation Xrotation
                }
                JOINT LeftEye
                {
                  OFFSET 4.45173 8.166359 3.206392
                  CHANNELS 3 Zrotation Yrotation Xrotation
                }
                JOINT RightEye
                {
                  OFFSET 4.436895 8.135758 -3.222429
                  CHANNELS 3 Zrotation Yrotation Xrotation
                }
              }
            }
          }
          JOINT LeftShoulder
          {
            OFFSET 23.218927 5.195579 1.621656
            CHANNELS 3 Zrotation Yrotation Xrotation
            JOINT LeftArm
            {
              OFFSET 15.902118 2e-06 -2e-06
              CHANNELS 3 Zrotation Yrotation Xrotation
              JOINT LeftForeArm
              {
                OFFSET 28.739307 0.0 -1e-06
                CHANNELS 3 Zrotation Yrotation Xrotation
                JOINT LeftHand
                {
                  OFFSET 27.093981 -4e-06 0.0
                  CHANNELS 3 Zrotation Yrotation Xrotation
                  JOINT LeftHandThumb1
                  {
                    OFFSET 2.276781 3.380274 0.83384
                    CHANNELS 3 Zrotation Yrotation Xrotation
                    JOINT LeftHandThumb2
                    {
                      OFFSET 4.705309 -1e-06 -1e-06
                      CHANNELS 3 Zrotation Yrotation Xrotation
                      JOINT LeftHandThumb3
                      {
                        OFFSET 2.798515 0.0 3e-06
                        CHANNELS 3 Zrotation Yrotation Xrotation
                        JOINT LeftHandThumbEnd
                        {
                          OFFSET 3.180793 4e-06 -4e-06
                          CHANNELS 3 Zrotation Yrotation Xrotation
                        }
                      }
                    }
                  }
                  JOINT LeftHandIndex1
                  {
                    OFFSET 3.247786 2.352677 0.137192
                    CHANNELS 3 Zrotation Yrotation Xrotation
                    JOINT LeftHandIndex2
                    {
                      OFFSET 6.367095 1e-06 0.0
                      CHANNELS 3 Zrotation Yrotation Xrotation
                      JOINT LeftHandIndex3
                      {
                        OFFSET 3.662364 0.0 0.0
                        CHANNELS 3 Zrotation Yrotation Xrotation
                        JOINT LeftHandIndex4
                        {
                          OFFSET 2.329242 4e-06 -4e-06
                          CHANNELS 3 Zrotation Yrotation Xrotation
                          JOINT LeftHandIndexEnd
                          {
                            OFFSET 2.767823 1e-06 0.0
                            CHANNELS 3 Zrotation Yrotation Xrotation
                          }
                        }
                      }
                    }
                  }
                  JOINT LeftHandMiddle1
                  {
                    OFFSET 3.163612 0.945023 -0.406112
                    CHANNELS 3 Zrotation Yrotation Xrotation
                    JOINT LeftHandMiddle2
                    {
                      OFFSET 6.276789 3e-06 0.0
                      CHANNELS 3 Zrotation Yrotation Xrotation
                      JOINT LeftHandMiddle3
                      {
                        OFFSET 4.35652 -1e-06 4e-06
                        CHANNELS 3 Zrotation Yrotation Xrotation
                        JOINT LeftHandMiddle4
                        {
                          OFFSET 2.996877 0.0 8e-06
                          CHANNELS 3 Zrotation Yrotation Xrotation
                          JOINT LeftHandMiddleEnd
                          {
                            OFFSET 2.323256 3e-06 -4e-06
                            CHANNELS 3 Zrotation Yrotation Xrotation
                          }
                        }
                      }
                    }
                  }
                  JOINT LeftHandRing1
                  {
                    OFFSET 2.882606 -0.309162 0.107445
                    CHANNELS 3 Zrotation Yrotation Xrotation
                    JOINT LeftHandRing2
                    {
                      OFFSET 6.033198 0.0 4e-06
                      CHANNELS 3 Zrotation Yrotation Xrotation
                      JOINT LeftHandRing3
                      {
                        OFFSET 4.350578 3e-06 0.0
                        CHANNELS 3 Zrotation Yrotation Xrotation
                        JOINT LeftHandRing4
                        {
                          OFFSET 2.651321 2e-06 -7e-06
                          CHANNELS 3 Zrotation Yrotation Xrotation
                          JOINT LeftHandRingEnd
                          {
                            OFFSET 1.937663 1e-06 -4e-06
                            CHANNELS 3 Zrotation Yrotation Xrotation
                          }
                        }
                      }
                    }
                  }
                  JOINT LeftHandPinky1
                  {
                    OFFSET 2.865315 -1.525436 0.575687
                    CHANNELS 3 Zrotation Yrotation Xrotation
                    JOINT LeftHandPinky2
                    {
                      OFFSET 5.54936 1e-06 -8e-06
                      CHANNELS 3 Zrotation Yrotation Xrotation
                      JOINT LeftHandPinky3
                      {
                        OFFSET 3.070974 0.0 -4e-06
                        CHANNELS 3 Zrotation Yrotation Xrotation
                        JOINT LeftHandPinky4
                        {
                          OFFSET 1.549672 1e-06 0.0
                          CHANNELS 3 Zrotation Yrotation Xrotation
                          JOINT LeftHandPinkyEnd
                          {
                            OFFSET 1.952123 0.0 0.0
                            CHANNELS 3 Zrotation Yrotation Xrotation
                          }
                        }
                      }
                    }
                  }
                }
              }
            }
          }
          JOINT RightShoulder
          {
            OFFSET 23.161716 5.296122 -1.380114
            CHANNELS 3 Zrotation Yrotation Xrotation
            JOINT RightArm
            {
              OFFSET -16.027195 -2e-06 1.1e-05
              CHANNELS 3 Zrotation Yrotation Xrotation
              JOINT RightForeArm
              {
                OFFSET -28.736639 4e-06 2e-06
                CHANNELS 3 Zrotation Yrotation Xrotation
                JOINT RightHand
                {
                  OFFSET -27.133619 6e-06 0.0
                  CHANNELS 3 Zrotation Yrotation Xrotation
                  JOINT RightHandThumb1
                  {
                    OFFSET -2.274328 -3.351035 -0.83067
                    CHANNELS 3 Zrotation Yrotation Xrotation
                    JOINT RightHandThumb2
                    {
                      OFFSET -4.703594 -3e-06 2e-06
                      CHANNELS 3 Zrotation Yrotation Xrotation
                      JOINT RightHandThumb3
                      {
                        OFFSET -2.794935 -4e-06 -3e-06
                        CHANNELS 3 Zrotation Yrotation Xrotation
                        JOINT RightHandThumbEnd
                        {
                          OFFSET -3.183852 4e-06 1e-06
                          CHANNELS 3 Zrotation Yrotation Xrotation
                        }
                      }
                    }
                  }
                  JOINT RightHandIndex1
                  {
                    OFFSET -3.253496 -2.33755 -0.127667
                    CHANNELS 3 Zrotation Yrotation Xrotation
                    JOINT RightHandIndex2
                    {
                      OFFSET -6.344434 0.0 0.0
                      CHANNELS 3 Zrotation Yrotation Xrotation
                      JOINT RightHandIndex3
                      {
                        OFFSET -3.654871 0.0 -8e-06
                        CHANNELS 3 Zrotation Yrotation Xrotation
                        JOINT RightHandIndex4
                        {
                          OFFSET -2.327586 -1e-06 0.0
                          CHANNELS 3 Zrotation Yrotation Xrotation
                          JOINT RightHandIndexEnd
                          {
                            OFFSET -2.770001 3e-06 8e-06
                            CHANNELS 3 Zrotation Yrotation Xrotation
                          }
                        }
                      }
                    }
                  }
                  JOINT RightHandMiddle1
                  {
                    OFFSET -3.168223 -0.944764 0.411762
                    CHANNELS 3 Zrotation Yrotation Xrotation
                    JOINT RightHandMiddle2
                    {
                      OFFSET -6.266691 -1e-06 -4e-06
                      CHANNELS 3 Zrotation Yrotation Xrotation
                      JOINT RightHandMiddle3
                      {
                        OFFSET -4.348901 0.0 0.0
                        CHANNELS 3 Zrotation Yrotation Xrotation
                        JOINT RightHandMiddle4
                        {
                          OFFSET -3.00024 2e-06 -4e-06
                          CHANNELS 3 Zrotation Yrotation Xrotation
                          JOINT RightHandMiddleEnd
                          {
                            OFFSET -2.321477 -4e-06 -4e-06
                            CHANNELS 3 Zrotation Yrotation Xrotation
                          }
                        }
                      }
                    }
                  }
                  JOINT RightHandRing1
                  {
                    OFFSET -2.885654 0.293261 -0.119232
                    CHANNELS 3 Zrotation Yrotation Xrotation
                    JOINT RightHandRing2
                    {
                      OFFSET -6.032835 -1e-06 -4e-06
                      CHANNELS 3 Zrotation Yrotation Xrotation
                      JOINT RightHandRing3
                      {
                        OFFSET -4.33881 0.0 -4e-06
                        CHANNELS 3 Zrotation Yrotation Xrotation
                        JOINT RightHandRing4
                        {
                          OFFSET -2.654903 -4e-06 -4e-06
                          CHANNELS 3 Zrotation Yrotation Xrotation
                          JOINT RightHandRingEnd
                          {
                            OFFSET -1.935122 0.0 4e-06
                            CHANNELS 3 Zrotation Yrotation Xrotation
                          }
                        }
                      }
                    }
                  }
                  JOINT RightHandPinky1
                  {
                    OFFSET -2.866241 1.503904 -0.60527
                    CHANNELS 3 Zrotation Yrotation Xrotation
                    JOINT RightHandPinky2
                    {
                      OFFSET -5.553177 -2e-06 0.0
                      CHANNELS 3 Zrotation Yrotation Xrotation
                      JOINT RightHandPinky3
                      {
                        OFFSET -3.062664 -1e-06 -4e-06
                        CHANNELS 3 Zrotation Yrotation Xrotation
                        JOINT RightHandPinky4
                        {
                          OFFSET -1.546529 2e-06 4e-06
                          CHANNELS 3 Zrotation Yrotation Xrotation
                          JOINT RightHandPinkyEnd
                          {
                            OFFSET -1.952341 0.0 -4e-06
                            CHANNELS 3 Zrotation Yrotation Xrotation
                          }
                        }
                      }
                    }
                  }
                }
              }
            }
          }
        }
      }
    }
    JOINT LeftLeg
    {
      OFFSET -8.443107 2.567604 10.043214
      CHANNELS 3 Zrotation Yrotation Xrotation
      JOINT LeftShin
      {
        OFFSET 43.229198 1e-06 -1e-06
        CHANNELS 3 Zrotation Yrotation Xrotation
        JOINT LeftFoot
        {
          OFFSET 42.298611 1e-06 1e-06
          CHANNELS 3 Zrotation Yrotation Xrotation
          JOINT LeftToeBase
          {
            OFFSET 14.165858 1e-06 0.0
            CHANNELS 3 Zrotation Yrotation Xrotation
            JOINT LeftToeEnd
            {
              OFFSET 6.7141 -0.234461 0.0
              CHANNELS 3 Zrotation Yrotation Xrotation
            }
          }
        }
      }
    }
    JOINT RightLeg
    {
      OFFSET -8.303923 2.592729 -10.047278
      CHANNELS 3 Zrotation Yrotation Xrotation
      JOINT RightShin
      {
        OFFSET -43.369682 0.0 1e-06
        CHANNELS 3 Zrotation Yrotation Xrotation
        JOINT RightFoot
        {
          OFFSET -42.260784 4e-06 2e-06
          CHANNELS 3 Zrotation Yrotation Xrotation
          JOINT RightToeBase
          {
            OFFSET -14.222245 -2e-06 -1e-06
            CHANNELS 3 Zrotation Yrotation Xrotation
            JOINT RightToeEnd
            {
              OFFSET -6.660062 0.232574 -2e-06
              CHANNELS 3 Zrotation Yrotation Xrotation
            }
          }
        }
      }
    }
  }
}
MOTION
Frames: 5
Frame Time: 0.03333333333333333
0.0 0.0 0.0 0.0 -0.0 0.0 -1.332746 88.317017 5.87683 91.359154 23.13129 90.129677 -0.659401 0.067554 -0.110958 -10.915656 -1.09234 -1.735635 23.600681 3.506784 -2.441113 25.737322 6.858436 1.097462 -2.573519 -0.244719 1.967424 -22.10581 1.912287 -1.202626 6e-06 0.0 0.0 -0.056493 -0.073341 0.086288 0.016977 -0.038114 0.131143 0.018895 -0.102136 0.049284 -139.074554 -77.822624 156.639847 27.033981 -37.682327 -2.008497 41.491497 -0.708186 0.006738 -1.078188 -2.209919 2.953232 17.636627 -26.322725 52.411186 -19.466665 -14.395598 29.410395 -0.0 -8.774821 -0.0 15.208178 -18.465635 6.905974 -0.609777 -1.795653 -3.88933 -4.807091 -11.04681 -2.93785 3e-06 -20.976021 3e-06 -5.019969 -25.03356 -4.031882 6e-06 0.0 -1e-06 -10.634533 -5.686969 -3.565587 10.573272 -17.922955 -3.113903 3e-06 -13.821209 0.0 -0.501772 -31.181505 -4.02702 -11.838853 -58.925762 7.570476 -13.982713 -7.150198 -2.875043 13.772731 -8.401495 -3.218243 0.347735 -34.211555 0.771652 -0.963024 -17.733372 2.621016 -2e-06 0.0 0.0 -17.346422 -20.095219 -4.20178 21.757561 -1.638374 3.866429 -1e-06 -6.338825 -2e-06 -1.697588 -22.591749 -6.194007 -1e-06 -3e-06 -3e-06 26.63271 -70.890038 171.710709 32.85434 -29.370388 -5.69749 57.595016 0.784572 0.947261 4.16863 -5.721199 -4.111155 22.182114 -20.375891 49.933308 -16.701811 -16.743528 28.476526 -2e-06 -12.6906 -1e-06 15.211796 -16.974377 3.048071 -0.105919 -1.513855 -4.275881 -5.03904 -5.61287 -2.953554 4e-06 -11.020525 -1e-06 -6.111298 -15.89533 -3.840471 -0.0 2e-06 -2e-06 -10.283367 -5.680285 -4.341837 11.028294 -11.302404 -2.372635 -1.384268 -14.238579 -6.32012 -0.625438 -26.924189 -3.8276 -4.569055 -48.975594 -3.038473 -13.708523 -7.363474 -3.720938 18.141148 -14.052738 -3.242674 5e-06 -18.78727 -1e-06 -0.429713 -8.45604 2.555503 2e-06 -1e-06 1e-06 -15.923532 -20.094482 -5.473586 30.419207 -7.190823 1.735925 3e-06 -8.162929 -0.0 -1.861903 -22.861467 -6.167942 2e-06 -3e-06 -1e-06 -168.187485 -15.758652 -5.560517 46.610863 -0.183357 0.194713 -100.559143 -1.060138 -18.515446 -6.348896 1.625899 2.142805 -0.999999 0.0 -0.0 9.301121 -17.047634 -3.907845 51.617863 -0.553055 0.687292 -100.833336 0.365923 -17.867634 -6.271614 0.640477 1.671058 -1.000001 0.0 0.0 
0.0 0.0 0.0 0.0 -0.0 0.0 -1.366708 88.345901 5.98794 91.291893 23.183975 90.156029 -0.762164 0.036006 -0.17187 -10.925647 -1.070286 -1.724207 23.600969 3.481314 -2.489377 25.781729 7.085441 1.061442 -2.57934 -0.246508 1.965881 -22.051559 1.939676 -1.329177 6e-06 -0.0 0.0 -0.071301 -0.084018 0.090118 -0.001129 -0.054746 0.131623 0.000405 -0.106539 0.054964 -138.530304 -77.716225 156.105484 27.09621 -37.238468 -2.337562 41.385857 -0.604797 -2.6e-05 -0.981478 -2.418976 1.851874 17.636637 -26.322733 52.411186 -19.466665 -14.395598 29.410393 -2e-06 -8.774822 -2e-06 15.281074 -18.418318 6.82093 -0.609776 -1.795655 -3.889329 -4.807088 -11.046811 -2.937852 1e-06 -20.976025 3e-06 -5.01997 -25.033564 -4.031879 7e-06 0.0 -3e-06 -10.634533 -5.686968 -3.565588 10.573274 -17.922955 -3.113899 3e-06 -13.821212 0.0 -0.501772 -31.181507 -4.027018 -11.736439 -59.117657 7.581541 -13.982714 -7.150198 -2.875045 13.772728 -8.401497 -3.218241 0.347734 -34.211555 0.771655 -0.963028 -17.73337 2.62102 -1e-06 0.0 1e-06 -17.346422 -20.095221 -4.201783 21.757566 -1.638376 3.866426 0.0 -6.338825 -1e-06 -1.69759 -22.591751 -6.194006 0.0 -4e-06 -2e-06 26.63431 -70.752083 171.757965 32.284904 -29.255112 -5.695049 57.347374 0.752904 0.886463 4.469717 -5.993321 -4.738691 22.182117 -20.375898 49.933323 -16.701817 -16.74353 28.476536 -1e-06 -12.690603 -1e-06 15.212627 -17.11108 3.119487 -0.105918 -1.513856 -4.275882 -5.039041 -5.612871 -2.953557 3e-06 -11.020525 -2e-06 -6.1113 -15.895334 -3.840471 -0.0 1e-06 -0.0 -10.283373 -5.680289 -4.341839 11.028296 -11.302406 -2.372634 -1.384269 -14.238581 -6.320122 -0.625435 -26.924191 -3.827604 -4.60575 -49.269176 -2.909565 -13.708526 -7.363477 -3.72094 18.141148 -14.05274 -3.242675 6e-06 -18.787271 -3e-06 -0.429711 -8.456047 2.555503 1e-06 -0.0 0.0 -15.923536 -20.094484 -5.473584 30.419218 -7.190824 1.735925 3e-06 -8.162929 -2e-06 -1.861903 -22.861469 -6.167943 0.0 -5e-06 -1e-06 -168.035797 -15.894941 -5.628139 46.56395 -0.194905 0.253306 -100.450348 -0.936844 -18.477631 -6.417067 1.629791 2.161329 -0.999998 0.0 0.0 9.51308 -16.982632 -4.078131 51.517899 -0.557778 0.655671 -100.73452 0.480087 -17.878351 -6.353976 0.623757 1.672464 -1.000003 -0.0 -0.0 
0.0 0.0 0.0 0.0 -0.0 0.0 -1.382387 88.33503 6.062479 91.250076 23.196983 90.173203 -0.857367 -0.017378 -0.187792 -10.927684 -1.086348 -1.719859 23.566328 3.441882 -2.488212 25.797445 7.138786 1.083669 -2.620384 -0.26399 1.852076 -22.010595 1.93048 -1.478711 5e-06 1e-06 0.0 -0.080048 -0.09212 0.086592 -0.025359 -0.068936 0.126095 -0.023622 -0.108709 0.05181 -138.266724 -77.598129 155.828766 27.01758 -36.773735 -2.69894 41.58094 -0.587983 -0.018129 -1.010805 -2.671581 0.71485 17.636627 -26.322741 52.411205 -19.466656 -14.395598 29.410389 -0.0 -8.774822 -1e-06 15.334984 -18.404528 6.772818 -0.609777 -1.795655 -3.889332 -4.807088 -11.046808 -2.937851 2e-06 -20.976019 5e-06 -5.019969 -25.03356 -4.031879 6e-06 2e-06 -2e-06 -10.634538 -5.686975 -3.565588 10.573274 -17.922949 -3.113896 2e-06 -13.821206 2e-06 -0.501778 -31.181498 -4.027013 -11.777313 -59.272526 7.611009 -13.982718 -7.150201 -2.875046 13.772733 -8.401491 -3.218242 0.34773 -34.211559 0.771661 -0.96303 -17.733372 2.621019 -2e-06 1e-06 1e-06 -17.34642 -20.095221 -4.201784 21.757561 -1.638373 3.866431 1e-06 -6.338822 1e-06 -1.697595 -22.591747 -6.194 0.0 -4e-06 -2e-06 26.638069 -70.620773 171.753342 31.692047 -29.164988 -5.802982 57.192009 0.730056 0.787234 4.623377 -6.108021 -5.540658 22.182119 -20.375895 49.933319 -16.701813 -16.74353 28.47653 -2e-06 -12.6906 -1e-06 15.192555 -17.140368 3.159206 -0.105919 -1.513856 -4.275882 -5.039042 -5.612873 -2.953557 2e-06 -11.020525 -2e-06 -6.111298 -15.895336 -3.840469 -1e-06 1e-06 -1e-06 -10.283373 -5.68029 -4.341839 11.028293 -11.302406 -2.372632 -1.384268 -14.238581 -6.320121 -0.625436 -26.924191 -3.827602 -4.652251 -49.456711 -2.830954 -13.708527 -7.363478 -3.720938 18.141151 -14.052737 -3.242675 6e-06 -18.78727 -2e-06 -0.429711 -8.456044 2.555502 1e-06 -2e-06 0.0 -15.923539 -20.09449 -5.473586 30.419218 -7.190826 1.735927 3e-06 -8.162929 -1e-06 -1.861903 -22.861479 -6.167942 -0.0 -3e-06 -1e-06 -167.999329 -16.015173 -5.729533 46.627697 -0.203104 0.270931 -100.434502 -0.808749 -18.388548 -6.465071 1.618696 2.170257 -0.999999 0.0 0.0 9.577435 -16.985157 -4.217026 51.567997 -0.552717 0.631797 -100.698235 0.639218 -17.943878 -6.393269 0.615374 1.67248 -1.000001 -0.0 0.0 
0.0 0.0 0.0 0.0 -0.0 0.0 -1.38238 88.304955 6.105449 91.199257 23.154804 90.170204 -0.923347 -0.074582 -0.163401 -10.941793 -1.094476 -1.699124 23.503403 3.369956 -2.476472 25.804798 7.032192 1.13182 -2.65428 -0.277002 1.713475 -21.996037 1.892622 -1.64362 6e-06 -1e-06 0.0 -0.084488 -0.094202 0.078001 -0.041524 -0.075615 0.115894 -0.040424 -0.106507 0.043537 -138.138412 -77.438095 155.645157 26.888264 -36.307713 -3.160651 41.980896 -0.700019 -0.040777 -1.055286 -2.788367 -0.195252 17.636623 -26.322733 52.411194 -19.466654 -14.395594 29.410385 -0.0 -8.774822 -2e-06 15.324122 -18.373383 6.771348 -0.609776 -1.795655 -3.88933 -4.807088 -11.046809 -2.937852 2e-06 -20.976017 2e-06 -5.019969 -25.033556 -4.031884 6e-06 1e-06 -2e-06 -10.634535 -5.686973 -3.565589 10.573271 -17.922945 -3.113898 3e-06 -13.821205 -0.0 -0.501777 -31.181498 -4.02702 -11.862893 -59.370777 7.67697 -13.982712 -7.150198 -2.875045 13.772725 -8.401489 -3.218242 0.347731 -34.211544 0.771653 -0.963029 -17.733368 2.621018 -1e-06 0.0 0.0 -17.346415 -20.095213 -4.201781 21.757557 -1.638373 3.866425 0.0 -6.338823 0.0 -1.697592 -22.591743 -6.194005 -1e-06 -4e-06 -2e-06 26.709141 -70.526291 171.693726 31.120279 -29.116926 -5.989673 57.148872 0.751368 0.743022 4.702366 -6.096893 -6.323977 22.182119 -20.375898 49.933327 -16.701809 -16.743528 28.47653 -1e-06 -12.690601 -1e-06 15.184533 -17.144171 3.165047 -0.10592 -1.513857 -4.275883 -5.03904 -5.612871 -2.953556 2e-06 -11.020523 -3e-06 -6.111297 -15.895334 -3.84047 -1e-06 1e-06 -1e-06 -10.28337 -5.680288 -4.341839 11.028296 -11.302407 -2.372633 -1.384269 -14.238583 -6.32012 -0.625437 -26.924191 -3.8276 -4.710604 -49.564205 -2.800161 -13.708524 -7.363475 -3.720941 18.141148 -14.052741 -3.242674 6e-06 -18.78727 -2e-06 -0.429709 -8.456042 2.555502 1e-06 -0.0 1e-06 -15.923534 -20.094482 -5.473586 30.41921 -7.190828 1.735925 3e-06 -8.162924 -1e-06 -1.861903 -22.861469 -6.167941 0.0 -3e-06 -0.0 -168.080078 -16.133884 -5.819731 46.778866 -0.205607 0.264757 -100.467766 -0.718077 -18.351463 -6.520067 1.606619 2.16844 -1.000001 0.0 -0.0 9.52074 -16.97558 -4.275974 51.67432 -0.546603 0.607547 -100.701447 0.718755 -18.019514 -6.399801 0.607906 1.669701 -1.000002 -0.0 -0.0 
0.0 0.0 0.0 0.0 -0.0 0.0 -1.370392 88.265015 6.143203 91.132591 23.097775 90.177795 -0.967536 -0.12477 -0.116941 -10.958091 -1.090003 -1.672079 23.426855 3.252331 -2.477161 25.811958 6.821186 1.179215 -2.668815 -0.283371 1.574564 -22.029728 1.824954 -1.807366 6e-06 -0.0 0.0 -0.085064 -0.090901 0.074463 -0.043292 -0.074573 0.111653 -0.044284 -0.101322 0.039832 -137.948196 -77.267471 155.409164 26.788891 -35.871838 -3.732568 42.533302 -0.835093 -0.028997 -1.070353 -2.805266 -1.124291 17.636639 -26.322737 52.41119 -19.46666 -14.395597 29.410381 -1e-06 -8.77482 -1e-06 15.274542 -18.331955 6.807061 -0.609778 -1.795655 -3.889326 -4.807091 -11.046811 -2.937851 4e-06 -20.976019 -0.0 -5.019969 -25.03356 -4.031878 8e-06 -0.0 -2e-06 -10.634535 -5.686973 -3.565589 10.573275 -17.922947 -3.113899 5e-06 -13.821206 -2e-06 -0.501776 -31.181501 -4.027015 -11.93519 -59.426056 7.779838 -13.982716 -7.150198 -2.875043 13.772731 -8.401491 -3.21824 0.347733 -34.211555 0.771657 -0.96303 -17.73337 2.62102 -1e-06 1e-06 1e-06 -17.34642 -20.095217 -4.201784 21.757555 -1.638375 3.866428 2e-06 -6.338823 -0.0 -1.697589 -22.591745 -6.194006 -2e-06 -3e-06 -1e-06 26.787617 -70.458328 171.625748 30.575022 -29.178745 -6.337594 57.201725 0.785355 0.752492 4.771344 -5.981851 -7.207306 22.182119 -20.375902 49.933315 -16.701807 -16.743526 28.476528 -3e-06 -12.690603 -2e-06 15.212549 -17.158779 3.157753 -0.10592 -1.513856 -4.275881 -5.039041 -5.612871 -2.953556 3e-06 -11.020525 -1e-06 -6.111298 -15.895334 -3.840467 -1e-06 0.0 -0.0 -10.28337 -5.680287 -4.34184 11.028295 -11.302407 -2.372631 -1.384268 -14.238584 -6.320119 -0.625439 -26.924191 -3.827598 -4.768044 -49.652027 -2.794154 -13.708525 -7.363476 -3.720939 18.141148 -14.05274 -3.242673 4e-06 -18.787271 1e-06 -0.429711 -8.456045 2.555504 1e-06 1e-06 1e-06 -15.923534 -20.094482 -5.473583 30.41921 -7.190827 1.735927 3e-06 -8.162928 -1e-06 -1.861905 -22.861473 -6.167938 0.0 -3e-06 -0.0 -168.214249 -16.265268 -5.889255 46.990364 -0.215015 0.264055 -100.515068 -0.685691 -18.30714 -6.55662 1.597131 2.164915 -0.999998 -0.0 0.0 9.434793 -16.929935 -4.288491 51.806858 -0.546477 0.590547 -100.700554 0.725973 -18.114214 -6.393236 0.602338 1.666201 -1.000001 -1e-06 -0.0 
